<mxfile host="app.diagrams.net" modified="2024-03-23T13:59:26.118Z" agent="Mozilla/5.0 (Windows NT 10.0; Win64; x64) AppleWebKit/537.36 (KHTML, like Gecko) Chrome/122.0.0.0 Safari/537.36" etag="K7RGcLDmDHaDRJE6rCuW" version="24.0.7" type="github">
  <diagram name="第 1 页" id="YbisxHCPoCNqCpzdYJ9j">
    <mxGraphModel dx="1434" dy="738" grid="1" gridSize="10" guides="1" tooltips="1" connect="1" arrows="1" fold="1" page="1" pageScale="1" pageWidth="827" pageHeight="1169" math="0" shadow="0">
      <root>
        <mxCell id="0" />
        <mxCell id="1" parent="0" />
        <mxCell id="Fom2r40ndwGeRzrIbb-l-1" value="&lt;font face=&quot;楷体&quot;&gt;我还是喜欢你&lt;/font&gt;" style="rounded=1;whiteSpace=wrap;html=1;shadow=1;sketch=1;curveFitting=1;jiggle=2;fontSize=18;" vertex="1" parent="1">
          <mxGeometry x="130" y="190" width="130" height="70" as="geometry" />
        </mxCell>
      </root>
    </mxGraphModel>
  </diagram>
</mxfile>
